<?xml version="1.0" encoding="UTF-8"?>
<svg width="8px" height="7px" viewBox="0 0 8 7" version="1.1" xmlns="http://www.w3.org/2000/svg" xmlns:xlink="http://www.w3.org/1999/xlink">
    <title>arrow-left-short</title>
    <g id="页面-1" stroke="none" stroke-width="1" fill="none" fill-rule="evenodd">
        <g id="arrow-left-short" fill="#FFFFFF" fill-rule="nonzero">
            <path d="M8.00089378,3.5006316 C8.00089378,3.77677398 7.77703616,4.0006316 7.50089378,4.0006316 L1.70789378,4.0006316 L3.85489378,6.1466316 C3.9813658,6.27310362 4.03075875,6.4574406 3.98446678,6.63020459 C3.9381748,6.80296858 3.80323077,6.93791262 3.63046678,6.98420459 C3.45770279,7.03049657 3.2733658,6.98110362 3.14689378,6.8546316 L0.146893784,3.8546316 C0.052852083,3.76082734 0,3.63345886 0,3.5006316 C0,3.36780434 0.052852083,3.24043586 0.146893784,3.1466316 L3.14689378,0.146631601 C3.34240259,-0.0488772003 3.65938498,-0.0488772003 3.85489378,0.146631601 C4.05040259,0.342140403 4.05040259,0.6591228 3.85489378,0.854631601 L1.70789378,3.0006316 L7.50089378,3.0006316 C7.77703616,3.0006316 8.00089378,3.22448923 8.00089378,3.5006316 Z" id="路径"></path>
        </g>
    </g>
</svg>