<?xml version="1.0" encoding="UTF-8"?>
<svg width="8px" height="7px" viewBox="0 0 8 7" version="1.1" xmlns="http://www.w3.org/2000/svg" xmlns:xlink="http://www.w3.org/1999/xlink">
    <title>arrow-right-short</title>
    <g id="页面-1" stroke="none" stroke-width="1" fill="none" fill-rule="evenodd">
        <g id="arrow-right-short" transform="translate(0.000894, 0.000000)" fill="#FFFFFF" fill-rule="nonzero">
            <path d="M0,3.5006316 C0,3.22448923 0.223857625,3.0006316 0.5,3.0006316 L6.293,3.0006316 L4.146,0.854631601 C3.9504912,0.6591228 3.9504912,0.342140403 4.146,0.146631601 C4.3415088,-0.0488772003 4.6584912,-0.0488772003 4.854,0.146631601 L7.854,3.1466316 C7.9480417,3.24043586 8.00089378,3.36780434 8.00089378,3.5006316 C8.00089378,3.63345886 7.9480417,3.76082734 7.854,3.8546316 L4.854,6.8546316 C4.6584912,7.0501404 4.3415088,7.0501404 4.146,6.8546316 C3.9504912,6.6591228 3.9504912,6.3421404 4.146,6.1466316 L6.293,4.0006316 L0.5,4.0006316 C0.223857625,4.0006316 0,3.77677398 0,3.5006316 Z" id="路径"></path>
        </g>
    </g>
</svg>