<?xml version="1.0" encoding="UTF-8"?>
<svg width="845px" height="824px" viewBox="0 0 845 824" version="1.1" xmlns="http://www.w3.org/2000/svg" xmlns:xlink="http://www.w3.org/1999/xlink">
    <title>公告</title>
    <g id="页面-1" stroke="none" stroke-width="1" fill="none" fill-rule="evenodd">
        <g id="公告" transform="translate(0.000000, 0.000000)" fill="#FFFFFF" fill-rule="nonzero">
            <path d="M710.723109,119.505887 C693.565467,108.3854 670.641712,113.277264 659.518109,130.432887 L659.518109,130.884887 C648.312865,148.331865 652.991388,171.524341 670.084109,183.262887 C674.148109,186.062887 770.145109,252.438887 770.145109,418.062887 C770.145109,583.686887 678.031109,650.063887 674.419109,652.862887 C657.070589,664.655221 652.440096,688.211205 664.034109,705.692887 C675.443335,722.805362 698.552053,727.452158 715.689109,716.079887 C721.017109,712.557887 844.829109,626.313887 844.829109,418.064887 C844.829109,209.815887 716.232109,123.117887 710.723109,119.505887 Z M600.367109,255.509887 C591.437456,251.33718 581.21261,250.897118 571.957468,254.287179 C562.702325,257.67724 555.180847,264.617593 551.059109,273.570887 C542.211055,292.327876 549.743079,314.724922 568.127109,324.323887 C570.565109,325.587887 626.647109,355.118887 626.647109,439.466887 C626.647109,529.773887 574.177109,559.394887 572.462109,560.388887 C553.870306,569.957359 546.392482,592.671282 555.664109,611.412887 C560.054748,620.338774 567.813745,627.153019 577.23181,630.35446 C586.649875,633.5559 596.954324,632.881881 605.875109,628.480887 C609.849109,626.403887 701.51212,578.269887 701.51212,439.556887 C701.873109,305.629887 604.882109,257.766887 600.367109,255.509887 L600.367109,255.509887 Z M476.735109,4.27288654 C467.163109,0.0288865398 441.876109,-7.10511346 414.152109,18.1808865 L352.020109,74.8938865 L227.847109,187.597887 L77.8461093,187.597887 C34.7946219,187.796612 5.45928892e-05,222.752941 5.45928892e-05,265.804887 L5.45928892e-05,517.401887 C-0.0503246162,560.474448 34.7737755,595.46004 77.8461093,595.608887 L182.512109,595.608887 L352.020109,749.402887 L414.242109,805.844887 C425.503466,817.046532 440.627275,823.509863 456.506109,823.907816 C463.503933,823.94986 470.43075,822.502796 476.826109,819.661887 C486.398109,815.507887 508.524109,801.600887 508.524109,764.212887 L508.524109,59.8128865 C508.524109,33.7128865 496.694109,13.1228865 476.735109,4.27288654 Z M352.020109,643.832887 L223.964109,527.154887 C216.669487,520.776851 207.283358,517.305371 197.594109,517.401887 L78.2071093,517.401887 L78.2071093,266.165887 L235.343109,266.165887 C247.30827,268.547183 259.699236,265.207568 268.847109,257.135887 L352.381109,181.185887 L430.588109,110.113887 L430.588109,715.175887 L352.020109,643.832887 Z" id="形状"></path>
        </g>
    </g>
</svg>