<svg class="icon" style="width: 1em;height: 1em;vertical-align: middle;fill: currentColor;overflow: hidden;" viewBox="0 0 1024 1024" version="1.1" xmlns="http://www.w3.org/2000/svg" p-id="8493"><path d="M139.9 357.3c-3 0-5.3 0.8-6.4 2.2-1 1.4-1.1 3.9-0.2 6.8l85.4 266.4c3 9.5 14.9 18.1 24.9 18.1h122.8L660 357.2H139.9z m115.3 139.4c-25.9 0-46.8-21-46.8-46.8s21-46.8 46.8-46.8c25.9 0 46.8 21 46.8 46.8s-21 46.8-46.8 46.8zM702.3 357.3L408.8 650.8h73.9l293.5-293.5zM685.5 650.8c10 0 21.8-8.6 24.9-18.1l24-74.8-92.9 92.9h44zM599 650.8l155.3-155.3 34.9-108.7-264.1 264z" fill="#FFBC00" p-id="8494"></path><path d="M915.1 138.9c-39.3 0-69.9 10.8-91.1 32-28 28.1-28.2 64.1-28.2 65.6v91.2c-2.1-0.3-4.3-0.5-6.6-0.5H139.9c-12.7 0-23.9 5.3-30.6 14.6-6.7 9.2-8.4 21.5-4.5 33.6l85.4 266.4c7 21.9 30.5 39 53.4 39h441.9c23 0 46.4-17.1 53.4-39L822 382.5c2.3-2.6 3.7-6.1 3.7-9.9v-3.2c0.8-4.6 0.8-9.1 0-13.4V236.5c0-0.2 0.5-25.3 19.5-44.4 15.4-15.4 38.9-23.2 69.9-23.2 8.3 0 15-6.7 15-15s-6.7-15-15-15zM243.6 650.8c-10 0-21.8-8.6-24.9-18.1l-85.4-266.4c-0.9-2.9-0.9-5.3 0.2-6.8 1-1.4 3.4-2.2 6.4-2.2h520L366.3 650.8H243.6z m165.2 0l293.6-293.6h73.9L482.7 650.8h-73.9z m301.6-18.1c-3 9.5-14.9 18.1-24.9 18.1h-44.1l92.9-92.9-23.9 74.8z m43.9-137.2L599 650.8h-73.9l264.1-264.1-34.9 108.8z" fill="#46287C" p-id="8495"></path><path d="M345.7 810.9c0-24.9-20.3-45.2-45.2-45.2-24.9 0-45.2 20.3-45.2 45.2s20.3 45.2 45.2 45.2c25 0 45.2-20.3 45.2-45.2z" fill="#FFBC00" p-id="8496"></path><path d="M300.6 735.7c-41.5 0-75.2 33.7-75.2 75.2s33.7 75.2 75.2 75.2 75.2-33.7 75.2-75.2-33.8-75.2-75.2-75.2z m-45.2 75.2c0-24.9 20.3-45.2 45.2-45.2 24.9 0 45.2 20.3 45.2 45.2s-20.3 45.2-45.2 45.2c-25 0-45.2-20.3-45.2-45.2z" fill="#46287C" p-id="8497"></path><path d="M626.8 765.7c-24.9 0-45.2 20.3-45.2 45.2s20.3 45.2 45.2 45.2c24.9 0 45.2-20.3 45.2-45.2s-20.3-45.2-45.2-45.2z" fill="#FFBC00" p-id="8498"></path><path d="M626.8 735.7c-41.5 0-75.2 33.7-75.2 75.2s33.7 75.2 75.2 75.2 75.2-33.7 75.2-75.2-33.8-75.2-75.2-75.2z m0 120.4c-24.9 0-45.2-20.3-45.2-45.2s20.3-45.2 45.2-45.2c24.9 0 45.2 20.3 45.2 45.2s-20.3 45.2-45.2 45.2z" fill="#46287C" p-id="8499"></path><path d="M255.2 449.9m-46.8 0a46.8 46.8 0 1 0 93.6 0 46.8 46.8 0 1 0-93.6 0Z" fill="#FFFFFF" p-id="8500"></path></svg>