<?xml version="1.0" encoding="UTF-8"?>
<svg width="16px" height="16px" viewBox="0 0 16 16" version="1.1" xmlns="http://www.w3.org/2000/svg" xmlns:xlink="http://www.w3.org/1999/xlink">
    <title>black.3145aa92e4bd</title>
    <g id="页面-1" stroke="none" stroke-width="1" fill="none" fill-rule="evenodd">
        <g id="1.10注册与找回密码验证" transform="translate(-55.000000, -4358.000000)" fill="#000000" fill-rule="nonzero">
            <g id="black.3145aa92e4bd" transform="translate(55.000000, 4358.000000)">
                <path d="M15.95,4.7 C15.91,3.85 15.78,3.27 15.58,2.76 C15.38,2.23 15.1,1.79 14.66,1.34 C14.26,0.93 13.78,0.62 13.24,0.42 C12.73,0.22 12.15,0.09 11.3,0.05 C10.44,0.01 10.17,-8.8817842e-16 8,-8.8817842e-16 C5.83,-8.8817842e-16 5.55,-8.8817842e-16 4.7,0.04 C3.85,0.08 3.27,0.22 2.76,0.41 C2.23,0.61 1.74,0.93 1.34,1.33 C0.93,1.73 0.62,2.21 0.42,2.75 C0.22,3.26 0.09,3.84 0.05,4.69 C0.01,5.55 0,5.82 0,7.99 C0,10.16 0.01,10.43 0.05,11.29 C0.09,12.14 0.22,12.72 0.42,13.23 C0.62,13.76 0.94,14.25 1.34,14.65 C1.74,15.06 2.22,15.37 2.76,15.57 C3.27,15.77 3.85,15.9 4.7,15.94 C5.55,15.98 5.83,15.99 8,15.99 C10.17,15.99 10.45,15.98 11.3,15.94 C12.15,15.9 12.73,15.77 13.24,15.57 C13.77,15.37 14.26,15.05 14.66,14.65 C15.07,14.25 15.38,13.77 15.58,13.23 C15.78,12.72 15.91,12.14 15.95,11.29 C15.99,10.44 16,10.17 16,7.99 C16,5.81 15.99,5.55 15.95,4.7 Z M14.51,11.22 C14.47,12 14.34,12.42 14.23,12.7 C14.08,13.07 13.91,13.34 13.63,13.62 C13.35,13.9 13.08,14.07 12.71,14.22 C12.43,14.33 12,14.46 11.23,14.5 C10.39,14.54 10.13,14.55 8,14.55 C5.86,14.55 5.61,14.54 4.77,14.5 C3.99,14.46 3.57,14.33 3.29,14.22 C2.92,14.07 2.65,13.9 2.37,13.62 C2.09,13.34 1.92,13.07 1.77,12.7 C1.66,12.42 1.53,11.99 1.49,11.22 C1.45,10.38 1.44,10.13 1.44,7.99 C1.44,5.85 1.45,5.6 1.49,4.76 C1.53,3.98 1.66,3.56 1.77,3.28 C1.92,2.91 2.09,2.64 2.37,2.36 C2.65,2.08 2.92,1.91 3.29,1.76 C3.57,1.65 4,1.52 4.77,1.48 C5.61,1.44 5.86,1.44 8,1.44 C10.14,1.44 10.39,1.45 11.23,1.49 C12.01,1.53 12.43,1.66 12.71,1.77 C13.06,1.9 13.37,2.1 13.63,2.37 C13.9,2.63 14.1,2.94 14.23,3.29 C14.34,3.57 14.47,4 14.51,4.77 C14.55,5.61 14.56,5.87 14.56,8 C14.55,10.13 14.55,10.38 14.51,11.22 Z" id="形状"></path>
                <path d="M8,3.89 C5.78,3.92 3.99,5.71 3.95,7.93 C3.92,10.2 5.73,12.06 8,12.1 L8.13,12.1 C10.4,12.06 12.21,10.2 12.17,7.93 C12.13,5.66 10.26,3.85 8,3.89 Z M8,10.66 C6.57,10.63 5.41,9.48 5.39,8.05 C5.35,6.57 6.52,5.36 8,5.33 L8.1,5.33 C9.57,5.36 10.74,6.58 10.71,8.05 C10.68,9.52 9.47,10.69 8,10.66 Z" id="形状"></path>
                <circle id="椭圆形" cx="12.27" cy="3.72" r="1"></circle>
            </g>
        </g>
    </g>
</svg>