<svg class="icon" style="width: 1em;height: 1em;vertical-align: middle;fill: currentColor;overflow: hidden;" viewBox="0 0 1024 1024" version="1.1" xmlns="http://www.w3.org/2000/svg" p-id="1371"><path d="M413.6 75.3h196.1c-31.6-7.1-64.4-10.8-98.1-10.8-33.7 0.1-66.5 3.8-98 10.8z" fill="#00D995" p-id="1372"></path><path d="M362.5 90l298.3 0.1c-16.6-5.9-33.6-10.8-51.1-14.7H413.6c-17.4 3.8-34.5 8.7-51.1 14.6z" fill="#01D996" p-id="1373"></path><path d="M326.2 104.6l370.9 0.1c-11.8-5.4-24-10.3-36.3-14.7l-298.3-0.1c-12.3 4.4-24.5 9.3-36.3 14.7z" fill="#01D997" p-id="1374"></path><path d="M296.9 119.3l429.4 0.1c-9.5-5.2-19.3-10.1-29.3-14.7l-370.9-0.1c-9.9 4.6-19.6 9.4-29.2 14.7z" fill="#01D898" p-id="1375"></path><path d="M272.1 133.9l479.1 0.1c-8.1-5.1-16.4-10-24.8-14.7l-429.4-0.1c-8.5 4.7-16.8 9.6-24.9 14.7z" fill="#01D899" p-id="1376"></path><path d="M250.4 148.6l522.5 0.1c-7.1-5.1-14.3-10-21.7-14.7l-479.1-0.1c-7.4 4.7-14.6 9.6-21.7 14.7z" fill="#01D89A" p-id="1377"></path><path d="M231.1 163.2l561 0.1c-6.3-5.1-12.7-9.9-19.3-14.7l-522.5-0.1c-6.4 4.8-12.9 9.7-19.2 14.7z" fill="#01D79B" p-id="1378"></path><path d="M213.8 177.9l595.6 0.1c-5.6-5-11.4-9.9-17.3-14.7l-561-0.1c-5.8 4.8-11.6 9.6-17.3 14.7z" fill="#01D79C" p-id="1379"></path><path d="M198.2 192.5l627 0.1c-5.1-5-10.3-9.9-15.7-14.7l-595.6-0.1c-5.4 4.8-10.6 9.7-15.7 14.7z" fill="#02D79D" p-id="1380"></path><path d="M183.9 207.2l655.5 0.1c-4.7-5-9.4-9.9-14.3-14.7l-627-0.1c-4.8 4.8-9.6 9.7-14.2 14.7z" fill="#02D79E" p-id="1381"></path><path d="M170.8 221.8l681.6 0.1c-4.2-5-8.6-9.9-13-14.7H183.9c-4.5 4.8-8.8 9.6-13.1 14.6z" fill="#02D69F" p-id="1382"></path><path d="M158.8 236.5l705.6 0.1c-3.9-5-7.9-9.9-12-14.7l-681.6-0.1c-4.1 4.8-8.1 9.7-12 14.7z" fill="#02D6A0" p-id="1383"></path><path d="M147.8 251.1l727.6 0.1c-3.6-5-7.2-9.9-11-14.7l-705.6-0.1c-3.7 4.9-7.4 9.8-11 14.7z" fill="#02D6A1" p-id="1384"></path><path d="M137.7 265.8l747.8 0.1c-3.3-5-6.7-9.8-10.1-14.7l-727.6-0.1c-3.4 4.8-6.8 9.7-10.1 14.7z" fill="#02D5A2" p-id="1385"></path><path d="M128.4 280.4l766.4 0.2c-3-5-6.1-9.8-9.3-14.7l-747.8-0.1c-3.2 4.8-6.3 9.7-9.3 14.6z" fill="#02D5A3" p-id="1386"></path><path d="M119.9 295.1l783.4 0.2c-2.8-4.9-5.6-9.8-8.5-14.7l-766.4-0.2c-2.9 4.9-5.7 9.7-8.5 14.7z" fill="#02D5A4" p-id="1387"></path><path d="M112.1 309.7l799 0.2c-2.5-4.9-5.1-9.8-7.8-14.7l-783.4-0.2c-2.7 4.9-5.3 9.8-7.8 14.7z" fill="#03D4A5" p-id="1388"></path><path d="M105 324.4l813.2 0.2c-2.3-4.9-4.7-9.8-7.1-14.7l-799-0.2c-2.4 4.9-4.8 9.8-7.1 14.7z" fill="#03D4A6" p-id="1389"></path><path d="M98.5 339l826.2 0.2c-2.1-4.9-4.2-9.8-6.5-14.7l-813.2-0.2c-2.2 4.9-4.4 9.8-6.5 14.7z" fill="#03D4A7" p-id="1390"></path><path d="M92.7 353.7l837.9 0.2c-1.9-4.9-3.8-9.8-5.8-14.7L98.6 339c-2.1 4.9-4.1 9.8-5.9 14.7z" fill="#03D4A8" p-id="1391"></path><path d="M87.4 368.4l848.4 0.2c-1.7-4.9-3.4-9.8-5.3-14.7l-837.9-0.2c-1.8 4.8-3.5 9.7-5.2 14.7z" fill="#03D3A9" p-id="1392"></path><path d="M82.7 383l857.8 0.2c-1.5-4.9-3-9.8-4.7-14.7l-848.4-0.2c-1.6 4.9-3.2 9.8-4.7 14.7z" fill="#03D3AA" p-id="1393"></path><path d="M78.6 397.7l866 0.2c-1.3-4.9-2.7-9.8-4.1-14.7L82.7 383c-1.4 4.9-2.8 9.7-4.1 14.7z" fill="#03D3AB" p-id="1394"></path><path d="M75 412.3l873.2 0.2c-1.1-4.9-2.3-9.8-3.6-14.7l-866-0.2c-1.3 4.9-2.5 9.8-3.6 14.7z" fill="#04D2AC" p-id="1395"></path><path d="M71.9 427l879.4 0.2c-1-4.9-2-9.8-3.1-14.7L75 412.3c-1.1 4.9-2.2 9.8-3.1 14.7z" fill="#04D2AD" p-id="1396"></path><path d="M69.3 441.6l884.6 0.2c-0.8-4.9-1.6-9.8-2.6-14.7l-879.4-0.2c-1 4.9-1.8 9.8-2.6 14.7z" fill="#04D2AE" p-id="1397"></path><path d="M67.2 456.3l888.7 0.2c-0.6-4.9-1.3-9.8-2.1-14.7l-884.6-0.2c-0.7 4.9-1.4 9.8-2 14.7z" fill="#04D1AF" p-id="1398"></path><path d="M65.6 470.9l891.9 0.2c-0.5-4.9-1-9.8-1.6-14.7l-888.7-0.2c-0.6 4.9-1.1 9.8-1.6 14.7z" fill="#04D1B0" p-id="1399"></path><path d="M64.5 485.6l894.1 0.2c-0.3-4.9-0.7-9.8-1.1-14.6l-891.9-0.3c-0.4 4.9-0.8 9.8-1.1 14.7z" fill="#04D1B1" p-id="1400"></path><path d="M63.9 500.2l895.3 0.2c-0.1-4.9-0.3-9.8-0.6-14.6l-894.1-0.2c-0.3 4.9-0.5 9.7-0.6 14.6z" fill="#04D1B2" p-id="1401"></path><path d="M63.9 500.2c-0.1 4-0.2 8.1-0.2 12.2v2.5l895.6 0.2v-2.7c0-4-0.1-8-0.2-12" fill="#05D0B3" p-id="1402"></path><path d="M64.1 529.6l895 0.2c0.2-4.9 0.3-9.8 0.3-14.7l-895.6-0.2c0 4.9 0.1 9.8 0.3 14.7z" fill="#05D0B4" p-id="1403"></path><path d="M64.9 544.2l893.4 0.2c0.3-4.9 0.6-9.8 0.8-14.7l-895-0.2c0.1 5 0.4 9.8 0.8 14.7z" fill="#05D0B5" p-id="1404"></path><path d="M66.1 558.9l890.9 0.2c0.5-4.9 0.9-9.8 1.3-14.7l-893.4-0.2c0.3 4.9 0.7 9.8 1.2 14.7z" fill="#05CFB6" p-id="1405"></path><path d="M67.9 573.5l887.4 0.2c0.7-4.9 1.2-9.8 1.8-14.7l-890.9-0.2c0.4 5 1 9.9 1.7 14.7z" fill="#05CFB7" p-id="1406"></path><path d="M70.1 588.2l882.9 0.2c0.8-4.9 1.6-9.7 2.3-14.7l-887.4-0.2c0.6 4.9 1.4 9.8 2.2 14.7z" fill="#05CFB8" p-id="1407"></path><path d="M72.9 602.8l877.4 0.2c1-4.9 1.9-9.7 2.8-14.7l-883-0.1c0.9 4.9 1.8 9.8 2.8 14.6z" fill="#05CEB9" p-id="1408"></path><path d="M76.1 617.5l870.8 0.2c1.2-4.8 2.3-9.7 3.3-14.7l-877.4-0.2 3.3 14.7z" fill="#06CEBA" p-id="1409"></path><path d="M79.9 632.1l863.2 0.2c1.3-4.8 2.6-9.7 3.8-14.7l-870.8-0.2c1.2 5 2.5 9.9 3.8 14.7z" fill="#06CEBB" p-id="1410"></path><path d="M84.2 646.8l854.6 0.2c1.5-4.8 3-9.7 4.3-14.7l-863.2-0.2c1.4 5 2.8 9.8 4.3 14.7z" fill="#06CEBD" p-id="1411"></path><path d="M89.1 661.4l844.8 0.2c1.7-4.8 3.3-9.7 4.9-14.7l-854.6-0.2c1.6 5 3.2 9.9 4.9 14.7z" fill="#06CDBE" p-id="1412"></path><path d="M94.6 676.1l833.9 0.2c1.9-4.8 3.7-9.7 5.5-14.7l-844.8-0.2c1.7 5 3.5 9.9 5.4 14.7z" fill="#06CDBF" p-id="1413"></path><path d="M100.7 690.8l821.8 0.2c2.1-4.8 4.1-9.7 6.1-14.7l-834-0.2c1.9 4.9 4 9.8 6.1 14.7z" fill="#06CDC0" p-id="1414"></path><path d="M107.3 705.4l808.4 0.2c2.3-4.8 4.5-9.7 6.7-14.7l-821.8-0.2c2.2 5 4.4 9.9 6.7 14.7z" fill="#06CCC1" p-id="1415"></path><path d="M114.7 720.1l793.7 0.2c2.5-4.8 5-9.7 7.3-14.7l-808.4-0.2c2.4 5 4.9 9.8 7.4 14.7z" fill="#07CCC2" p-id="1416"></path><path d="M122.7 734.7l777.6 0.2c2.8-4.8 5.5-9.7 8-14.7l-793.7-0.2c2.7 5 5.4 9.9 8.1 14.7z" fill="#07CCC3" p-id="1417"></path><path d="M131.5 749.4l760.1 0.2c3-4.8 5.9-9.7 8.8-14.7l-777.6-0.2c2.8 5 5.7 9.9 8.7 14.7z" fill="#07CBC4" p-id="1418"></path><path d="M141.1 764l740.9 0.2c3.3-4.8 6.5-9.7 9.6-14.7l-760.1-0.2c3.1 5 6.3 9.9 9.6 14.7z" fill="#07CBC5" p-id="1419"></path><path d="M151.5 778.7l720.1 0.2c3.6-4.8 7-9.7 10.4-14.7l-740.9-0.2c3.3 5 6.8 9.9 10.4 14.7z" fill="#07CBC6" p-id="1420"></path><path d="M162.8 793.4l697.4 0.1c3.9-4.8 7.7-9.7 11.3-14.7l-720.1-0.2c3.7 5.1 7.5 10 11.4 14.8z" fill="#07CBC7" p-id="1421"></path><path d="M175.1 808l672.7 0.1c4.2-4.8 8.3-9.7 12.4-14.7l-697.4-0.1c4 5 8.1 9.9 12.3 14.7z" fill="#07CAC8" p-id="1422"></path><path d="M188.6 822.7l645.8 0.1c4.6-4.8 9.1-9.7 13.5-14.7l-672.7-0.1c4.3 5 8.8 9.9 13.4 14.7z" fill="#08CAC9" p-id="1423"></path><path d="M203.4 837.3l616.3 0.1c5-4.8 10-9.7 14.8-14.7H188.6c4.8 5 9.7 9.9 14.8 14.6z" fill="#08CACA" p-id="1424"></path><path d="M219.6 852l583.8 0.1c5.5-4.8 10.9-9.6 16.2-14.7l-616.3-0.1c5.3 5 10.8 9.9 16.3 14.7z" fill="#08C9CB" p-id="1425"></path><path d="M237.5 866.6l547.9 0.1c6.1-4.7 12.1-9.6 18-14.7H219.6c5.8 5 11.8 9.9 17.9 14.6z" fill="#08C9CC" p-id="1426"></path><path d="M247.9 874.4l527.2 0.1c3.5-2.5 7-5.2 10.4-7.8l-547.9-0.1c3.3 2.7 6.8 5.3 10.3 7.8zM511.6 960.3c98.5 0 189.6-31.8 263.5-85.7l-527.2-0.1c74 53.9 165.1 85.8 263.7 85.8z" fill="#08C9CC" p-id="1427"></path><path d="M767.7 692V365.1l-1.3-3.1c-0.8-2-17.4-39.8-80.2-54.8v-0.5h-1.8c-15.1-3.5-32.9-5.6-53.7-5.6-67.2 0-102.6 22-120.2 39.6-17.6-17.6-53-39.6-120.2-39.6-109.2 0-134.7 58.3-135.7 60.8l-1.3 3.1v324.6c0 9.7 2.2 17.2 6.8 22.9 5.2 6.4 16.7 13.8 38.5 6.9l1.8-0.7c19.3-8.6 44.8-12.9 75.7-12.9 43.5 0 84.3 8.6 101.6 13.7 7.9 2.3 14.6 3.4 20.5 3.4 5.5 0 9.8-1.1 13.4-2.7 6.4 2.3 15.3 2.9 27.3-0.9l1.8-0.7c19.3-8.6 44.8-12.9 75.7-12.9 43.5 0 84.3 8.6 101.6 13.7 7.9 2.3 14.6 3.4 20.5 3.4 13.3 0 20.5-5.8 24.2-10.6 5.1-6.3 6-14.2 5-20.2zM424.4 540.7h-85.7c-9.3 0-16.8-7.5-16.8-16.8s7.5-16.8 16.8-16.8h85.7c9.3 0 16.8 7.5 16.8 16.8s-7.5 16.8-16.8 16.8z m0-70.2h-85.7c-9.3 0-16.8-7.5-16.8-16.8s7.5-16.8 16.8-16.8h85.7c9.3 0 16.8 7.5 16.8 16.8s-7.5 16.8-16.8 16.8zM734.1 689c-1.7-0.3-3.8-0.8-6.4-1.6-19-5.6-63.8-15.1-111.1-15.1-35.2 0-64.9 5.2-88.4 15.4l-0.9 0.3V372.7c4-6.2 17.1-22.4 50.2-31.5v115l55-31.6 53.7 32V341.8c31.7 9.2 44.2 25 47.9 30.8V689z" fill="#FFFFFF" p-id="1428"></path><path d="M323.6 310.3l1.1 134.3c2.9-4.5 8-7.5 13.7-7.7l7.5-132c-8.1 1.5-15.5 3.3-22.3 5.4zM324.8 463.1l0.4 51c2.2-3 5.4-5.3 9.1-6.3l2.1-37.4c-4.8-0.7-9-3.5-11.6-7.3zM325.4 534l0.9 115.6 6.3-110.2c-2.9-1-5.4-2.9-7.2-5.4zM338.8 470.5c-0.8 0-1.5-0.1-2.3-0.2l-2.1 37.4c1.4-0.4 2.9-0.6 4.4-0.6h73.1l2.1-36.7h-75.2z" fill="#FFFFFF" p-id="1429"></path><path d="M390.4 301.2c-16.7 0-31.5 1.4-44.5 3.7l-7.5 132h77.5l7.6-133.7c-10.1-1.3-21.1-2-33.1-2zM338.8 540.7c-2.2 0-4.3-0.4-6.2-1.2l-6.3 110.2 0.5 60.9c14.4-3.1 31-4.7 49.5-4.7 8.2 0 16.3 0.3 24.2 0.8l9.4-166h-71.1zM409.9 540.7l-9.4 166c0.3 0 0.6 0 1 0.1l9.4-166.1h-1z" fill="#FFFFFF" p-id="1430"></path><path d="M423.4 303.2l-7.6 133.7h1l7.6-133.6c-0.3 0-0.7-0.1-1-0.1zM413.9 470.5l-2.1 36.6h1l2.1-36.6z" fill="#FFFFFF" p-id="1431"></path><path d="M410.9 540.7l-9.4 166.1c0.3 0 0.6 0 1 0.1l9.4-166.2h-1zM424.4 303.3l-7.6 133.6h1l7.6-133.5c-0.4 0-0.7 0-1-0.1zM414.9 470.5l-2.1 36.6h1l2.1-36.6z" fill="#FDFFFF" p-id="1432"></path><path d="M415.9 470.5l-2.1 36.6h0.9l2.1-36.6zM425.3 303.4l-7.6 133.5h1l7.6-133.3c-0.3-0.1-0.6-0.1-1-0.2zM411.9 540.7l-9.4 166.2c0.3 0 0.6 0 1 0.1l9.4-166.2h-1z" fill="#FCFFFE" p-id="1433"></path><path d="M416.8 470.5l-2.1 36.6h1l2.1-36.6zM426.3 303.6l-7.6 133.3h1l7.6-133.2c-0.3-0.1-0.7-0.1-1-0.1zM412.8 540.7L403.4 707c0.3 0 0.6 0 1 0.1l9.4-166.3h-1z" fill="#FAFFFE" p-id="1434"></path><path d="M417.8 470.5l-2.1 36.6h1l2.1-36.6zM413.8 540.7L404.4 707c0.3 0 0.6 0.1 1 0.1l9.5-166.4h-1.1zM427.3 303.7l-7.6 133.2h1l7.6-133.1c-0.4 0-0.7-0.1-1-0.1z" fill="#F8FFFE" p-id="1435"></path><path d="M414.8 540.7l-9.5 166.4c0.3 0 0.6 0.1 1 0.1l9.5-166.5h-1zM428.2 303.8l-7.6 133.1h1l7.5-132.9c-0.2-0.1-0.5-0.1-0.9-0.2zM418.8 470.5l-2.1 36.6h1l2-36.6z" fill="#F6FEFD" p-id="1436"></path><path d="M419.7 470.5l-2 36.6h0.9l2.1-36.6zM415.7 540.7l-9.5 166.5c0.3 0 0.6 0.1 1 0.1l9.5-166.6h-1zM429.2 304l-7.5 132.9h1l7.5-132.8c-0.4 0-0.7-0.1-1-0.1z" fill="#F5FEFD" p-id="1437"></path><path d="M420.7 470.5l-2.1 36.6h1l2.1-36.6zM430.2 304.1l-7.5 132.8h1l7.5-132.6c-0.4-0.1-0.7-0.1-1-0.2zM416.7 540.7l-9.5 166.6c0.3 0 0.6 0.1 1 0.1l9.5-166.6h-1z" fill="#F3FEFD" p-id="1438"></path><path d="M417.7 540.7l-9.5 166.6c0.3 0 0.6 0.1 1 0.1l9.5-166.7h-1zM421.7 470.5l-2.1 36.6h1l2.1-36.6zM431.1 304.3l-7.5 132.6h0.9l7.5-132.5c-0.2 0-0.6-0.1-0.9-0.1z" fill="#F1FEFC" p-id="1439"></path><path d="M418.7 540.7l-9.5 166.7c0.3 0 0.6 0.1 1 0.1l9.5-166.8h-1zM432.1 304.4l-7.5 132.5h1l7.5-132.4c-0.4 0-0.7 0-1-0.1zM422.7 470.5l-2.1 36.6h0.9l2.1-36.6z" fill="#F0FEFC" p-id="1440"></path><path d="M433 304.6L425.5 437c0.3 0 0.6 0 1 0.1l7.5-132.3c-0.3-0.1-0.6-0.1-1-0.2zM419.6 540.7l-9.5 166.8c0.3 0 0.6 0.1 1 0.1l9.5-166.9h-1zM424.4 470.5h-0.8l-2.1 36.7h1l2.1-36.7h-0.2z" fill="#EEFEFC" p-id="1441"></path><path d="M424.6 470.5l-2.1 36.7h1l2.1-36.7c-0.4-0.1-0.7 0-1 0zM434 304.8L426.5 437c0.3 0 0.6 0.1 1 0.1l7.5-132.2c-0.4 0-0.7-0.1-1-0.1zM420.6 540.7l-9.5 166.9c0.3 0 0.6 0.1 1 0.1l9.5-167h-1z" fill="#ECFEFB" p-id="1442"></path><path d="M425.6 470.4l-2.1 36.7h0.9l2.1-36.8c-0.3 0.1-0.6 0.1-0.9 0.1zM435 304.9l-7.5 132.2c0.3 0.1 0.6 0.1 1 0.2L436 305c-0.4 0.1-0.7 0-1-0.1zM421.6 540.7l-9.5 167c0.3 0 0.6 0.1 1 0.1l9.5-167.1h-1z" fill="#EAFEFB" p-id="1443"></path><path d="M435.9 305.1l-7.5 132.3c0.3 0.1 0.6 0.2 1 0.2l7.5-132.4c-0.3 0-0.7 0-1-0.1zM426.5 470.3l-2.1 36.8h1l2.1-37c-0.3 0.1-0.6 0.2-1 0.2zM422.5 540.7L413 707.8c0.3 0 0.6 0.1 1 0.1l9.5-167.2h-1z" fill="#E9FEFB" p-id="1444"></path><path d="M436.9 305.3l-7.5 132.4c0.3 0.1 0.6 0.2 1 0.3l7.5-132.5c-0.4-0.1-0.7-0.2-1-0.2zM424.4 540.7h-0.9L414 707.9c0.3 0 0.6 0.1 1 0.1l9.4-167.3c0.1 0 0.1 0 0 0zM427.5 470.2l-2.1 37c0.3 0 0.6 0 1 0.1l2.1-37.3c-0.3 0-0.6 0.1-1 0.2z" fill="#E7FEFA" p-id="1445"></path><path d="M437.9 305.5L430.3 438c0.3 0.1 0.6 0.2 0.9 0.4l7.5-132.7c-0.2-0.1-0.5-0.2-0.8-0.2zM428.5 470l-2.1 37.3c0.3 0 0.6 0.1 1 0.1l2.1-37.7c-0.3 0.1-0.7 0.2-1 0.3zM424.5 540.7L415 708c0.3 0 0.6 0.1 1 0.1l9.5-167.4h-1z" fill="#E5FDFA" p-id="1446"></path><path d="M425.5 540.7L416 708.1c0.3 0 0.6 0.1 1 0.1l9.5-167.6c-0.4 0-0.7 0-1 0.1zM438.8 305.7l-7.5 132.7c0.3 0.1 0.6 0.3 0.9 0.5l7.6-133c-0.3-0.1-0.7-0.2-1-0.2zM429.5 469.7l-2.1 37.7c0.3 0.1 0.6 0.1 1 0.2l2.2-38.3c-0.4 0.2-0.8 0.3-1.1 0.4z" fill="#E4FDFA" p-id="1447"></path><path d="M426.4 540.6l-9.5 167.6c0.3 0 0.6 0.1 1 0.1l9.5-167.9c-0.3 0.1-0.6 0.1-1 0.2zM430.5 469.3l-2.2 38.3c0.3 0.1 0.6 0.2 1 0.2l2.2-39c-0.3 0.3-0.7 0.4-1 0.5zM439.8 305.9l-7.6 133c0.3 0.2 0.6 0.4 0.9 0.5l7.6-133.3c-0.3-0.1-0.6-0.2-0.9-0.2z" fill="#E2FDF9" p-id="1448"></path><path d="M440.7 306.1l-7.6 133.3 0.9 0.6 7.6-133.7c-0.2-0.1-0.5-0.2-0.9-0.2zM431.5 468.9l-2.2 39c0.3 0.1 0.6 0.2 1 0.3l2.3-39.8c-0.4 0.2-0.8 0.3-1.1 0.5zM427.4 540.4l-9.5 167.9c0.3 0 0.6 0.1 1 0.1l9.6-168.2c-0.4 0.1-0.7 0.2-1.1 0.2z" fill="#E0FDF9" p-id="1449"></path><path d="M441.7 306.3L434.1 440c0.3 0.2 0.6 0.5 0.9 0.7l7.6-134.2c-0.3-0.1-0.6-0.2-0.9-0.2zM428.4 540.2l-9.6 168.2c0.3 0 0.6 0.1 1 0.1l9.6-168.6c-0.3 0.2-0.7 0.2-1 0.3zM432.5 468.4l-2.3 39.8c0.3 0.1 0.6 0.2 1 0.4l2.3-40.8c-0.3 0.2-0.7 0.4-1 0.6z" fill="#DEFDF9" p-id="1450"></path><path d="M433.5 467.8l-2.3 40.8c0.3 0.1 0.6 0.3 0.9 0.5l2.4-41.9c-0.3 0.1-0.7 0.4-1 0.6zM429.4 540l-9.6 168.6c0.3 0 0.6 0.1 1 0.1l9.6-169c-0.3 0-0.7 0.2-1 0.3zM442.7 306.5L435 440.7c0.3 0.3 0.6 0.5 0.9 0.8l7.7-134.8c-0.3-0.1-0.6-0.2-0.9-0.2z" fill="#DDFDF8" p-id="1451"></path><path d="M430.4 539.6l-9.6 169c0.3 0 0.6 0.1 1 0.1l9.6-169.6c-0.4 0.2-0.7 0.4-1 0.5zM434.5 467.1l-2.4 41.9c0.3 0.2 0.6 0.3 0.9 0.5l2.5-43.3c-0.3 0.3-0.7 0.6-1 0.9zM443.6 306.7L436 441.5l0.9 0.9 7.7-135.6c-0.3 0-0.7 0-1-0.1z" fill="#DBFDF8" p-id="1452"></path><path d="M435.5 466.3l-2.5 43.3 0.9 0.6 2.5-44.9c-0.2 0.3-0.5 0.6-0.9 1zM431.4 539.2l-9.6 169.6c0.3 0 0.6 0.1 1 0.1l9.7-170.2c-0.5 0.2-0.8 0.3-1.1 0.5zM444.6 306.9l-7.7 135.6c0.3 0.4 0.6 0.7 0.9 1.1l7.8-136.4c-0.4-0.2-0.7-0.2-1-0.3z" fill="#D9FDF8" p-id="1453"></path><path d="M445.5 307.1l-7.8 136.4c0.3 0.4 0.6 0.9 0.9 1.3l7.8-137.5c-0.2 0-0.5-0.1-0.9-0.2zM436.5 465.3l-2.5 44.9c0.3 0.2 0.6 0.5 0.9 0.7l2.7-46.8c-0.3 0.4-0.7 0.8-1.1 1.2zM432.4 538.7l-9.7 170.2c0.3 0 0.6 0.1 1 0.1l9.7-170.9c-0.4 0.2-0.7 0.4-1 0.6z" fill="#D8FDF7" p-id="1454"></path><path d="M437.6 464.1l-2.7 46.8c0.3 0.3 0.6 0.5 0.9 0.8l2.8-49.1c-0.3 0.5-0.6 1-1 1.5zM433.4 538.1L423.7 709c0.3 0 0.6 0.1 1 0.1l9.8-171.7c-0.4 0.2-0.8 0.5-1.1 0.7zM446.5 307.3l-7.8 137.5c0.3 0.5 0.6 1.1 0.9 1.6l7.9-138.9c-0.4 0-0.7-0.1-1-0.2z" fill="#D6FCF7" p-id="1455"></path><path d="M434.4 537.4l-9.8 171.7c0.3 0 0.6 0.1 1 0.1l9.8-172.6c-0.3 0.3-0.7 0.5-1 0.8zM438.6 462.6l-2.8 49.1 0.9 0.9 3-52c-0.3 0.7-0.7 1.3-1.1 2zM447.4 307.6l-7.9 138.9 0.9 2.1 8-140.8c-0.3-0.1-0.6-0.1-1-0.2z" fill="#D4FCF7" p-id="1456"></path><path d="M448.4 307.8l-8 140.8c0.4 1.3 0.7 2.6 0.7 4l8.2-144.5-0.9-0.3zM439.7 460.6l-3 52c0.3 0.3 0.6 0.7 0.9 1.1l3.2-56.9c-0.1 1.3-0.5 2.5-1.1 3.8zM435.4 536.6l-9.8 172.6c0.3 0 0.6 0.1 1 0.1l9.9-173.7c-0.4 0.4-0.7 0.7-1.1 1z" fill="#D2FCF6" p-id="1457"></path><path d="M449.4 308.1l-8.2 144.5c0 0.4 0.1 0.7 0.1 1.1 0 1-0.1 2.1-0.3 3.1l-3.2 56.9c0.3 0.4 0.6 0.8 0.9 1.3l11.7-206.6c-0.4-0.2-0.7-0.3-1-0.3zM436.4 535.6l-9.9 173.7c0.3 0 0.6 0.1 1 0.1l9.9-175c-0.3 0.5-0.6 0.9-1 1.2z" fill="#D1FCF6" p-id="1458"></path><path d="M450.3 308.3l-11.7 206.6c0.3 0.5 0.6 1 0.9 1.6l11.8-207.9c-0.3-0.1-0.7-0.2-1-0.3zM437.5 534.5l-9.9 175c0.3 0 0.6 0.1 1 0.1l10-176.6c-0.4 0.5-0.8 1-1.1 1.5z" fill="#CFFCF6" p-id="1459"></path><path d="M438.5 533l-10 176.6c0.3 0 0.6 0.1 1 0.1L439.6 531c-0.3 0.7-0.7 1.4-1.1 2zM451.3 308.6l-11.8 207.9c0.3 0.7 0.6 1.3 0.9 2.1l11.9-209.7c-0.4-0.2-0.7-0.2-1-0.3z" fill="#CDFCF5" p-id="1460"></path><path d="M452.2 308.8l-11.9 209.7c0.4 1.1 0.6 2.3 0.8 3.5l12.1-212.9c-0.3-0.1-0.7-0.2-1-0.3zM439.6 531l-10.2 178.7c0.3 0 0.6 0.1 1 0.1l10.4-182.2c-0.3 1.2-0.7 2.4-1.2 3.4z" fill="#CCFCF5" p-id="1461"></path><path d="M453.2 309.1L441.1 522c0.1 0.6 0.1 1.3 0.1 1.9 0 1.3-0.2 2.5-0.4 3.7l-10.4 182.2c0.3 0 0.6 0.1 1 0.1l22.8-400.7c-0.4 0.1-0.7 0-1-0.1z" fill="#CAFCF5" p-id="1462"></path><path d="M454.1 309.4L431.4 710c0.3 0 0.6 0.1 1 0.1l22.7-400.5c-0.3 0-0.6-0.1-1-0.2z" fill="#C8FCF4" p-id="1463"></path><path d="M455.1 309.7l-22.7 400.5c0.3 0 0.6 0.1 1 0.1l22.7-400.4c-0.4-0.1-0.7-0.2-1-0.2z" fill="#C6FCF4" p-id="1464"></path><path d="M456.1 309.9l-22.7 400.4c0.3 0 0.6 0.1 1 0.1L457 310.2l-0.9-0.3z" fill="#C5FBF4" p-id="1465"></path><path d="M457 310.2l-22.7 400.2c0.3 0 0.6 0.1 1 0.1l22.7-400c-0.4-0.1-0.7-0.2-1-0.3z" fill="#C3FBF3" p-id="1466"></path><path d="M458 310.5l-22.7 400.1c0.3 0 0.6 0.1 1 0.1L459 310.8c-0.4-0.1-0.7-0.2-1-0.3z" fill="#C1FBF3" p-id="1467"></path><path d="M458.9 310.8l-22.7 399.9c0.3 0 0.6 0.1 1 0.1L459.9 311c-0.3 0-0.7-0.1-1-0.2z" fill="#C0FBF3" p-id="1468"></path><path d="M459.9 311.1l-22.7 399.8c0.3 0.1 0.6 0.1 1 0.2l22.7-399.6c-0.4-0.2-0.7-0.3-1-0.4z" fill="#BEFBF2" p-id="1469"></path><path d="M460.8 311.4L438.1 711c0.3 0.1 0.6 0.1 1 0.2l22.7-399.4c-0.3-0.1-0.7-0.3-1-0.4z" fill="#BCFBF2" p-id="1470"></path><path d="M461.8 311.8l-22.7 399.4c0.3 0.1 0.6 0.1 1 0.2l22.7-399.3c-0.4-0.1-0.7-0.2-1-0.3z" fill="#BAFBF2" p-id="1471"></path><path d="M462.7 312.1L440 711.3c0.3 0.1 0.6 0.1 1 0.2l22.7-399.1c-0.3-0.1-0.7-0.2-1-0.3z" fill="#B9FBF2" p-id="1472"></path><path d="M463.7 312.4L441 711.5c0.3 0.1 0.6 0.1 1 0.2l22.7-398.9c-0.4-0.1-0.7-0.3-1-0.4z" fill="#B7FBF1" p-id="1473"></path><path d="M464.6 312.8L442 711.7c0.3 0.1 0.6 0.1 1 0.2l22.6-398.7c-0.3-0.2-0.6-0.3-1-0.4z" fill="#B5FAF1" p-id="1474"></path><path d="M465.6 313.1L443 711.8c0.3 0.1 0.6 0.1 1 0.2l22.6-398.5c-0.4-0.1-0.7-0.3-1-0.4z" fill="#B3FAF1" p-id="1475"></path><path d="M466.5 313.5L443.9 712c0.3 0.1 0.6 0.1 1 0.2l22.6-398.3c-0.3-0.2-0.6-0.3-1-0.4z" fill="#B2FAF0" p-id="1476"></path><path d="M467.5 313.8l-22.6 398.3c0.3 0.1 0.6 0.1 1 0.2l22.6-398.1c-0.4-0.1-0.7-0.2-1-0.4z" fill="#B0FAF0" p-id="1477"></path><path d="M468.4 314.2l-22.6 398.1c0.3 0.1 0.6 0.1 1 0.2l22.6-397.9c-0.3-0.2-0.6-0.3-1-0.4z" fill="#AEFAF0" p-id="1478"></path><path d="M469.4 314.6l-22.6 397.9c0.3 0.1 0.6 0.1 1 0.2L470.3 315c-0.3-0.2-0.6-0.3-0.9-0.4z" fill="#ADFAEF" p-id="1479"></path><path d="M470.3 315l-22.6 397.7c0.3 0.1 0.6 0.1 1 0.2l22.6-397.5c-0.3-0.2-0.6-0.3-1-0.4z" fill="#ABFAEF" p-id="1480"></path><path d="M471.3 315.3l-22.6 397.5c0.3 0.1 0.6 0.1 1 0.2l22.6-397.3c-0.4-0.1-0.7-0.2-1-0.4z" fill="#A9FAEF" p-id="1481"></path><path d="M472.2 315.7L449.7 713c0.3 0.1 0.6 0.1 1 0.2l22.6-397.1c-0.4-0.1-0.7-0.2-1.1-0.4z" fill="#A7FAEE" p-id="1482"></path><path d="M473.2 316.2l-22.6 397.1c0.3 0.1 0.6 0.1 1 0.2l22.5-396.8c-0.3-0.3-0.6-0.4-0.9-0.5z" fill="#A6F9EE" p-id="1483"></path><path d="M474.1 316.6l-22.5 396.8c0.3 0.1 0.6 0.1 1 0.2L475.1 317c-0.3-0.2-0.7-0.3-1-0.4z" fill="#A4F9EE" p-id="1484"></path><path d="M475.1 317l-22.5 396.6c0.3 0.1 0.6 0.1 1 0.2L476 317.4c-0.3-0.1-0.6-0.3-0.9-0.4z" fill="#A2F9ED" p-id="1485"></path><path d="M476 317.4l-22.5 396.4c0.3 0.1 0.6 0.1 1 0.2L477 317.9c-0.3-0.2-0.7-0.3-1-0.5z" fill="#A1F9ED" p-id="1486"></path><path d="M477 317.9L454.5 714c0.3 0.1 0.6 0.1 1 0.2L478 318.3c-0.4-0.2-0.7-0.3-1-0.4z" fill="#9FF9ED" p-id="1487"></path><path d="M477.9 318.3l-22.5 395.9c0.3 0.1 0.6 0.1 1 0.2l22.5-395.6c-0.4-0.2-0.7-0.4-1-0.5z" fill="#9DF9EC" p-id="1488"></path><path d="M478.9 318.7l-22.5 395.6c0.3 0.1 0.6 0.1 1 0.2l22.5-395.4c-0.4 0-0.7-0.2-1-0.4z" fill="#9BF9EC" p-id="1489"></path><path d="M479.8 319.2l-22.5 395.4c0.3 0.1 0.6 0.1 1 0.2l22.4-395.1c-0.3-0.2-0.6-0.3-0.9-0.5z" fill="#9AF9EC" p-id="1490"></path><path d="M480.8 319.7l-22.4 395.1c0.3 0.1 0.6 0.1 1 0.2l22.4-394.8c-0.4-0.2-0.7-0.4-1-0.5z" fill="#98F9EB" p-id="1491"></path><path d="M481.7 320.2L459.3 715c0.3 0.1 0.6 0.1 1 0.2l22.4-394.5c-0.4-0.2-0.7-0.4-1-0.5z" fill="#96F9EB" p-id="1492"></path><path d="M482.6 320.7l-22.4 394.5c0.3 0.1 0.6 0.1 1 0.2l22.4-394.2c-0.3-0.2-0.6-0.4-1-0.5z" fill="#95F8EB" p-id="1493"></path><path d="M483.6 321.1l-22.4 394.2c0.3 0.1 0.6 0.1 1 0.2l22.4-394c-0.4 0-0.7-0.2-1-0.4z" fill="#93F8EA" p-id="1494"></path><path d="M484.5 321.7l-22.4 394c0.3 0.1 0.6 0.1 1 0.2l22.4-393.6c-0.3-0.3-0.7-0.5-1-0.6z" fill="#91F8EA" p-id="1495"></path><path d="M485.5 322.2l-22.4 393.6c0.3 0.1 0.6 0.1 1 0.2l22.3-393.3c-0.3-0.2-0.6-0.3-0.9-0.5z" fill="#8FF8EA" p-id="1496"></path><path d="M486.4 322.7L464.1 716c0.3 0.1 0.6 0.1 1 0.2l22.3-393c-0.4-0.1-0.7-0.3-1-0.5z" fill="#8EF8E9" p-id="1497"></path><path d="M487.3 323.2l-22.3 393c0.3 0.1 0.6 0.1 1 0.2l22.3-392.7c-0.3-0.1-0.6-0.3-1-0.5z" fill="#8CF8E9" p-id="1498"></path><path d="M488.3 323.8L466 716.5c0.3 0.1 0.6 0.2 1 0.2l22.3-392.4c-0.4-0.1-0.7-0.3-1-0.5z" fill="#8AF8E9" p-id="1499"></path><path d="M489.2 324.3l-22.3 392.4c0.3 0.1 0.6 0.2 1 0.2l22.3-392c-0.3-0.2-0.7-0.4-1-0.6z" fill="#89F8E8" p-id="1500"></path><path d="M490.2 324.9l-22.3 392c0.3 0.1 0.6 0.2 1 0.2l22.2-391.7c-0.3-0.1-0.6-0.3-0.9-0.5z" fill="#87F8E8" p-id="1501"></path><path d="M491.1 325.5l-22.2 391.7c0.3 0.1 0.6 0.2 1 0.2L492 326.1l-0.9-0.6z" fill="#85F7E8" p-id="1502"></path><path d="M492 326.1l-22.2 391.3c0.3 0.1 0.6 0.2 1 0.2l22.2-391c-0.3-0.1-0.6-0.3-1-0.5z" fill="#83F7E7" p-id="1503"></path><path d="M493 326.7l-22.2 391c0.3 0.1 0.6 0.2 1 0.2L494 327.3c-0.4-0.2-0.7-0.4-1-0.6z" fill="#82F7E7" p-id="1504"></path><path d="M493.9 327.3l-22.2 390.6c0.3 0.1 0.6 0.2 1 0.2l22.2-390.2c-0.4-0.2-0.7-0.4-1-0.6z" fill="#80F7E7" p-id="1505"></path><path d="M494.9 327.9l-22.2 390.2c0.3 0.1 0.6 0.2 1 0.3l22.1-389.8c-0.3-0.2-0.6-0.4-0.9-0.7z" fill="#7EF7E6" p-id="1506"></path><path d="M495.8 328.6l-22.1 389.8c0.3 0.1 0.6 0.2 1 0.3l22.1-389.4c-0.4-0.3-0.7-0.5-1-0.7z" fill="#7CF7E6" p-id="1507"></path><path d="M496.7 329.2l-22.1 389.4c0.3 0.1 0.6 0.2 1 0.3l22.1-389c-0.4-0.2-0.7-0.4-1-0.7z" fill="#7BF7E6" p-id="1508"></path><path d="M497.7 329.9l-22.1 389c0.3 0.1 0.6 0.2 1 0.3l22.1-388.6c-0.4-0.2-0.7-0.5-1-0.7z" fill="#79F7E5" p-id="1509"></path><path d="M498.6 330.6l-22.1 388.6c0.3 0.1 0.6 0.2 1 0.3l22.1-388.2c-0.4-0.3-0.7-0.5-1-0.7z" fill="#77F7E5" p-id="1510"></path><path d="M499.5 331.3l-22.1 388.2c0.1 0 0.3 0.1 0.4 0.1 0.2 0.1 0.4 0.1 0.5 0.2l22-387.8c-0.2-0.2-0.5-0.5-0.8-0.7z" fill="#76F7E5" p-id="1511"></path><path d="M500.4 332l-22 387.8c0.3 0.1 0.6 0.2 1 0.3l22-387.3c-0.3-0.3-0.6-0.6-1-0.8z" fill="#74F6E4" p-id="1512"></path><path d="M501.4 332.7l-22 387.3c0.3 0.1 0.6 0.2 1 0.3l22-386.8c-0.4-0.3-0.7-0.5-1-0.8z" fill="#72F6E4" p-id="1513"></path><path d="M502.3 333.5l-22 386.8c0.3 0.1 0.6 0.2 1 0.3l21.9-386.3c-0.3-0.3-0.6-0.6-0.9-0.8z" fill="#70F6E4" p-id="1514"></path><path d="M503.2 334.2l-21.9 386.3c0.3 0.1 0.6 0.2 1 0.2L504.2 335c-0.3-0.3-0.6-0.5-1-0.8z" fill="#6FF6E3" p-id="1515"></path><path d="M504.2 335l-21.9 385.8c0.3 0.1 0.6 0.2 1 0.2l21.9-385.3c-0.4-0.2-0.7-0.5-1-0.7z" fill="#6DF6E3" p-id="1516"></path><path d="M505.1 335.8L483.2 721c5.6 1.4 10.6 2 15.2 2s8.3-0.8 11.5-1.9l-3-383.8-1.8-1.5z" fill="#6DF6E3" p-id="1517"></path></svg>