<?xml version="1.0" encoding="UTF-8"?>
<svg width="87px" height="30px" viewBox="0 0 87 30" version="1.1" xmlns="http://www.w3.org/2000/svg" xmlns:xlink="http://www.w3.org/1999/xlink">
    <title>编组</title>
    <g id="页面-1" stroke="none" stroke-width="1" fill="none" fill-rule="evenodd">
        <g id="编组">
            <path d="M3,0 L82.7866551,0 C84.4435093,-2.96889445e-15 85.7866551,1.34314575 85.7866551,3 C85.7866551,3.33407016 85.7308563,3.6657942 85.6215619,3.98148012 L77.3124624,27.9814801 C76.8941707,29.1896736 75.7561092,30 74.4775556,30 L3,30 C1.34314575,30 -2.41183085e-16,28.6568542 0,27 L0,3 C-2.02906125e-16,1.34314575 1.34314575,-5.83819232e-16 3,0 Z" id="矩形" fill="#E9EDFF"></path>
            <text id="系统公告" font-family="PingFangSC-Medium, PingFang SC" font-size="12" font-weight="400" letter-spacing="-0.709090909" fill="#5986EC">
                <tspan x="25.4181818" y="19">系统公告</tspan>
            </text>
            <g id="bell-fill" transform="translate(7.000000, 7.000000)" fill="#5986EC" fill-rule="nonzero">
                <path d="M7,16.0008749 C8.1045695,16.0008749 9,15.1054444 9,14.0008749 L5,14.0008749 C5,15.1054444 5.8954305,16.0008749 7,16.0008749 Z M7.995,1.09987492 C8.03307256,0.720578542 7.85218879,0.35262875 7.52859622,0.151126607 C7.20500365,-0.0503755357 6.79499635,-0.0503755357 6.47140378,0.151126607 C6.14781121,0.35262875 5.96692744,0.720578542 6.005,1.09987492 C3.67473919,1.57385379 2.0003004,3.62289861 2,6.00087492 C2,7.09887492 1.5,12.0008749 0,13.0008749 L14,13.0008749 C12.5,12.0008749 12,7.09887492 12,6.00087492 C12,3.58087492 10.28,1.56087492 7.995,1.09987492 Z" id="形状"></path>
            </g>
        </g>
    </g>
</svg>