<?xml version="1.0" encoding="UTF-8"?>
<svg width="144px" height="144px" viewBox="0 0 144 144" version="1.1" xmlns="http://www.w3.org/2000/svg" xmlns:xlink="http://www.w3.org/1999/xlink">
    <title>outline-client-logo</title>
    <g id="页面-1" stroke="none" stroke-width="1" fill="none" fill-rule="evenodd">
        <g id="outline-client-logo" transform="translate(0.280000, 0.240000)" fill-rule="nonzero">
            <path d="M143.5,30.26 C143.5,29.15 143.5,28.05 143.5,26.95 C143.453121,24.5397196 143.225819,22.1363334 142.82,19.76 C142.423589,17.3843352 141.671833,15.081874 140.59,12.93 C139.491853,10.7788956 138.060895,8.81470355 136.35,7.11 L130.55,2.88 C128.397123,1.79638066 126.095404,1.03812765 123.72,0.63 C121.339924,0.233959856 118.932689,0.0233267783 116.52,0 C115.42,0 28.05,0 26.94,0 C24.5207189,0.0241336494 22.1068991,0.234757814 19.72,0.63 C17.3533278,1.0347574 15.0610111,1.79324455 12.92,2.88 C10.776057,3.98076569 8.81604063,5.40776556 7.11,7.11 C5.39917681,8.81245747 3.97119699,10.7771957 2.88,12.93 C1.79470579,15.0813117 1.03957203,17.3837955 0.64,19.76 C0.242665662,22.1367165 0.028701456,24.5404706 0,26.95 C0,28.05 0,115.42 0,116.53 C0.0260860823,118.952922 0.240061121,121.370171 0.64,123.76 C1.03688629,126.136866 1.79214998,128.439746 2.88,130.59 C3.97154234,132.736622 5.3996014,134.694717 7.11,136.39 C8.81076019,138.098407 10.7718043,139.526155 12.92,140.62 C15.0630423,141.695532 17.3551621,142.443842 19.72,142.84 C22.0973856,143.23208 24.5007401,143.446008 26.91,143.48 C28.02,143.48 115.39,143.48 116.49,143.48 C118.896011,143.447311 121.296139,143.233372 123.67,142.84 C126.05269,142.430193 128.361243,141.668539 130.52,140.58 C132.666622,139.488458 134.624717,138.060399 136.32,136.35 C138.030461,134.652454 139.461495,132.694908 140.56,130.55 C141.651244,128.413507 142.413189,126.124302 142.82,123.76 C143.219562,121.383219 143.440182,118.979803 143.48,116.57 C143.5,115.42 143.52,31.56 143.5,30.26 Z" id="路径" fill="#183729"></path>
            <path d="M115.56,67.18 C113.479305,47.4822474 98.0644295,31.83507 78.4,29.46 L78.4,46.61 C90.3639366,48.9407714 98.9995893,59.4211414 98.9995893,71.61 C98.9995893,83.7988586 90.3639366,94.2792286 78.4,96.61 L78.4,113.81 C101.441146,111.020701 117.983623,90.2624755 115.56,67.18 Z" id="路径" fill="#FFFFFF"></path>
            <path d="M27.92,76.09 C30.00425,95.7860717 45.4173043,111.4314 65.08,113.81 L65.08,29.46 C42.0388535,32.249299 25.4963774,53.0075245 27.92,76.09 L27.92,76.09 Z" id="路径" fill="#5BB193"></path>
        </g>
    </g>
</svg>