<?xml version="1.0" encoding="UTF-8"?>
<svg width="16px" height="16px" viewBox="0 0 16 16" version="1.1" xmlns="http://www.w3.org/2000/svg" xmlns:xlink="http://www.w3.org/1999/xlink">
    <title>person</title>
    <g id="页面-1" stroke="none" stroke-width="1" fill="none" fill-rule="evenodd">
        <g id="Apple-TV-4K" transform="translate(-550.000000, -263.000000)" fill="#000000" fill-rule="nonzero">
            <g id="person" transform="translate(550.000000, 263.000000)">
                <path d="M11,6 C11,7.65685425 9.65685425,9 8,9 C6.34314575,9 5,7.65685425 5,6 C5,4.34314575 6.34314575,3 8,3 C9.65685425,3 11,4.34314575 11,6 Z" id="路径"></path>
                <path d="M0,8 C0,3.581722 3.581722,0 8,0 C12.418278,0 16,3.581722 16,8 C16,12.418278 12.418278,16 8,16 C3.581722,16 0,12.418278 0,8 Z M8,1 C5.30989344,1.00014323 2.85785872,2.5418663 1.6919641,4.96619364 C0.526069471,7.39052098 0.852604899,10.2684992 2.532,12.37 C3.242,11.226 4.805,10 8,10 C11.195,10 12.757,11.225 13.468,12.37 C15.1473951,10.2684992 15.4739305,7.39052098 14.3080359,4.96619364 C13.1421413,2.5418663 10.6901066,1.00014323 8,1 Z" id="形状"></path>
            </g>
        </g>
    </g>
</svg>