<svg class="icon" style="width: 1em;height: 1em;vertical-align: middle;fill: currentColor;overflow: hidden;" viewBox="0 0 1024 1024" version="1.1" xmlns="http://www.w3.org/2000/svg" p-id="9295"><path d="M511.500488 512.499512m-511.500488 0a511.500488 511.500488 0 1 0 1023.000976 0 511.500488 511.500488 0 1 0-1023.000976 0Z" fill="#1BC1FA" p-id="9296"></path><path d="M445.365073 217.48761H247.258537c-19.980488 0-36.264585 16.284098-36.264586 36.264585v198.406244c0 19.980488 16.284098 36.264585 36.264586 36.264585h198.406243c19.980488 0 36.264585-16.284098 36.264586-36.264585V253.852098c-0.299707-19.980488-16.583805-36.364488-36.564293-36.364488z m1.498537 199.605073c0 19.980488-16.284098 36.264585-36.264586 36.264585H282.024585c-19.980488 0-36.264585-16.284098-36.264585-36.264585V288.618146c0-19.980488 16.284098-36.264585 36.264585-36.264585H410.599024c19.980488 0 36.264585 16.284098 36.264586 36.264585v128.474537z" fill="#FFFFFF" p-id="9297"></path><path d="M374.034732 309.797463H318.68878c-8.491707 0-15.684683 6.993171-15.684682 15.684683v55.345952c0 8.491707 6.993171 15.684683 15.684682 15.684682h55.345952c8.491707 0 15.684683-6.993171 15.684683-15.684682v-55.645659c-0.299707-8.491707-7.292878-15.384976-15.684683-15.384976zM703.612878 309.797463h-55.345951c-8.491707 0-15.684683 6.993171-15.684683 15.684683v55.345952c0 8.491707 6.993171 15.684683 15.684683 15.684682h55.345951c8.491707 0 15.684683-6.993171 15.684683-15.684682v-55.645659c-0.199805-8.491707-7.192976-15.384976-15.684683-15.384976zM445.365073 535.077463H247.258537c-19.980488 0-36.264585 16.284098-36.264586 36.264586v198.406244c0 19.980488 16.284098 36.264585 36.264586 36.264585h198.406243c19.980488 0 36.264585-16.284098 36.264586-36.264585V571.342049c-0.299707-19.880585-16.583805-36.264585-36.564293-36.264586z m1.498537 199.605074c0 19.980488-16.284098 36.264585-36.264586 36.264585H282.024585c-19.980488 0-36.264585-16.284098-36.264585-36.264585V606.208c0-19.980488 16.284098-36.264585 36.264585-36.264585H410.599024c19.980488 0 36.264585 16.284098 36.264586 36.264585v128.474537z" fill="#FFFFFF" p-id="9298"></path><path d="M374.034732 627.287415H318.68878c-8.491707 0-15.684683 6.993171-15.684682 15.684683V698.318049c0 8.491707 6.993171 15.684683 15.684682 15.684683h55.345952c8.491707 0 15.684683-6.993171 15.684683-15.684683v-55.345951c-0.299707-8.691512-7.292878-15.684683-15.684683-15.684683zM676.139707 806.11278c-9.690537 0-17.582829-7.892293-17.582829-17.582829v-97.304975c0-9.690537 7.892293-17.582829 17.582829-17.58283 9.690537 0 17.582829 7.892293 17.58283 17.58283v97.304975c0 9.690537-7.892293 17.582829-17.58283 17.582829zM781.836488 631.58322c-9.590634 0-17.383024-7.79239-17.383025-17.383025V552.460488c0-9.590634 7.79239-17.383024 17.383025-17.383025 9.590634 0 17.383024 7.79239 17.383024 17.383025v61.739707c0 9.590634-7.79239 17.383024-17.383024 17.383025zM781.836488 645.169951c9.590634 0 17.383024 7.79239 17.383024 17.383025v126.17678c0 9.590634-7.79239 17.383024-17.383024 17.383024-9.590634 0-17.383024-7.79239-17.383025-17.383024V662.552976c0-9.590634 7.79239-17.383024 17.383025-17.383025zM676.139707 540.472195c9.590634 0 17.482927 7.892293 17.482927 17.482927V633.381463c0 9.590634-7.892293 17.482927-17.482927 17.482927s-17.482927-7.892293-17.482927-17.482927v-75.426341c-0.099902-9.590634 7.79239-17.482927 17.482927-17.482927zM569.943415 806.11278c-9.690537 0-17.582829-7.892293-17.58283-17.582829V649.166049c0-9.690537 7.892293-17.582829 17.58283-17.582829 9.690537 0 17.582829 7.892293 17.582829 17.582829v139.363902c0 9.690537-7.892293 17.582829-17.582829 17.582829zM569.943415 535.077463c9.690537 0 17.582829 7.892293 17.582829 17.58283v49.851317c0 9.690537-7.892293 17.582829-17.582829 17.582829-9.690537 0-17.582829-7.892293-17.58283-17.582829v-49.851317c0.099902-9.690537 7.992195-17.582829 17.58283-17.58283z" fill="#FFFFFF" p-id="9299"></path><path d="M776.541659 417.092683c0 19.980488-16.284098 36.264585-36.264586 36.264585H611.702634c-19.980488 0-36.264585-16.284098-36.264585-36.264585V288.618146c0-19.980488 16.284098-36.264585 36.264585-36.264585h71.030634c-3.596488-11.588683-5.594537-23.277268-5.694439-34.766049H576.636878c-19.980488 0-36.264585 16.284098-36.264585 36.264586v198.406243c0 19.980488 16.284098 36.264585 36.264585 36.264586h198.406244c19.980488 0 36.264585-16.284098 36.264585-36.264586v-83.818146c-11.688585-3.096976-23.277268-7.39278-34.766048-12.987317v61.639805z" fill="#FFFFFF" p-id="9300"></path><path d="M775.043122 217.48761h-98.004293c0.199805 11.48878 2.097951 23.177366 5.694439 34.766049H740.277073c19.980488 0 36.264585 16.284098 36.264586 36.264585v66.934634c11.48878 5.594537 23.177366 9.890341 34.766048 12.987317V253.852098c0-19.980488-16.284098-36.364488-36.264585-36.364488z" fill="#FFFFFF" opacity=".4" p-id="9301"></path></svg>