<?xml version="1.0" encoding="UTF-8"?>
<svg width="168px" height="29px" viewBox="0 0 168 29" version="1.1" xmlns="http://www.w3.org/2000/svg" xmlns:xlink="http://www.w3.org/1999/xlink">
    <title>download</title>
    <defs>
        <linearGradient x1="0%" y1="50%" x2="100%" y2="50%" id="linearGradient-1">
            <stop stop-color="#60B0FE" offset="0%"></stop>
            <stop stop-color="#4176FA" offset="100%"></stop>
        </linearGradient>
    </defs>
    <g id="页面-1" stroke="none" stroke-width="1" fill="none" fill-rule="evenodd">
        <g id="download" transform="translate(0.000000, -0.000000)">
            <path d="M7.09887528,-2.812344 L7.09808699,7.09896589 C4.2409854,5.55819483 2.81243461,3.94435212 2.81243461,2.25743776 L2.81243461,-2.812344 L7.09887528,-2.812344 Z" id="Rectangle" fill="#375CB1" fill-rule="nonzero" transform="translate(4.955655, 2.143311) rotate(90.000000) translate(-4.955655, -2.143311) "></path>
            <path d="M165.187565,-2.81239494 L165.186777,7.09891495 C162.329676,5.55814389 160.901125,3.94430118 160.901125,2.25738682 L160.901125,-2.81239494 L165.187565,-2.81239494 Z" id="Rectangle" fill="#375CB1" fill-rule="nonzero" transform="translate(163.044345, 2.143260) scale(-1, 1) rotate(90.000000) translate(-163.044345, -2.143260) "></path>
            <g id="Rectangle" transform="translate(84.000000, 14.500000) rotate(90.000000) translate(-84.000000, -14.500000) translate(69.500000, -64.660345)">
                <g id="path-2-link" transform="translate(0.000000, 0.000000)" fill="#000000" fill-rule="nonzero">
                    <path d="M0,0 C0,1.1846991 0.3242168,2.1106395 0.9726504,2.7778213 C1.6566876,3.4816654 2.5255674,3.9046809 3.387701,4.1062414 C4.99357,4.4816818 11.8185218,5.6845117 23.8625562,7.7147308 C24.7556157,7.8499517 25.7741605,8.2657542 26.9181906,8.9621383 C28.0622208,9.6585224 28.7561572,10.921409 29,12.750798 L29,144.802035 C29,146.532036 28.5768393,147.834416 27.7305179,148.709175 C26.8841965,149.583935 25.5948759,150.216196 23.8625562,150.60596 C13.6737031,152.368554 7.1494035,153.502314 4.2896576,154.007238 C1.4298859,154.512162 0,155.94998 0,158.320691 L0,0 Z" id="path-2"></path>
                </g>
                <g id="path-2-link" transform="translate(0.000000, 0.000000)" fill="url(#linearGradient-1)">
                    <path d="M0,1.80635403e-14 C0,1.1846991 0.3242168,2.1106395 0.9726504,2.7778213 C1.6566876,3.4816654 2.5255674,3.9046809 3.387701,4.1062414 C4.99357,4.4816818 11.8185218,5.6845117 23.8625562,7.7147308 C24.7556157,7.8499517 25.7741605,8.2657542 26.9181906,8.9621383 C28.0622208,9.6585224 28.7561572,10.921409 29,12.750798 L29,144.802035 C29,146.532036 28.5768393,147.834416 27.7305179,148.709175 C26.8841965,149.583935 25.5948759,150.216196 23.8625562,150.60596 C13.6737031,152.368554 7.1494035,153.502314 4.2896576,154.007238 C1.4298859,154.512162 0,155.94998 0,158.320691 L0,1.80635403e-14 Z" id="path-2"></path>
                </g>
            </g>
        </g>
    </g>
</svg>