<?xml version="1.0" encoding="UTF-8"?>
<svg width="770px" height="418px" viewBox="0 0 770 418" version="1.1" xmlns="http://www.w3.org/2000/svg" xmlns:xlink="http://www.w3.org/1999/xlink">
    <title>shang</title>
    <g id="页面-1" stroke="none" stroke-width="1" fill="none" fill-rule="evenodd">
        <g id="shang" transform="translate(0.000000, 0.000000)" fill="#20133A" fill-rule="nonzero">
            <path d="M760.0932,361.009143 L406.716181,10.864378 C406.203562,10.351759 405.5,10.19178 404.956418,9.71184498 C404.829123,9.58454998 404.79644,9.39188798 404.669145,9.26459298 C392.092771,-3.15180302 371.837429,-3.08815502 359.388349,9.45725498 L9.27626693,362.80159 C-3.17109207,375.377964 -3.07648107,395.602343 9.46892893,408.049702 C15.7080899,414.225216 23.8687139,417.330175 31.9966539,417.330175 C40.2209249,417.330175 48.4761589,414.161569 54.7170409,407.85876 L382.557708,77.04215 L715.037751,406.449918 C721.276912,412.625432 729.406572,415.730391 737.565476,415.730391 C745.820711,415.730391 754.044981,412.561785 760.285863,406.258976 C772.733222,393.713565 772.636891,373.456502 760.0932,361.009143 Z" id="路径"></path>
        </g>
    </g>
</svg>