<?xml version="1.0" encoding="UTF-8"?>
<svg width="82px" height="80px" viewBox="0 0 82 80" version="1.1" xmlns="http://www.w3.org/2000/svg" xmlns:xlink="http://www.w3.org/1999/xlink">
    <title>切片</title>
    <defs>
        <linearGradient x1="100%" y1="2.40928019%" x2="50%" y2="50%" id="linearGradient-1">
            <stop stop-color="#60B0FE" offset="0%"></stop>
            <stop stop-color="#4176FA" offset="100%"></stop>
        </linearGradient>
    </defs>
    <g id="页面-1" stroke="none" stroke-width="1" fill="none" fill-rule="evenodd">
        <g id="编组">
            <path d="M0,0 L71,0 C77.0751322,-1.11598369e-15 82,4.92486775 82,11 L82,80 L82,80 L0,0 Z" id="矩形" fill="url(#linearGradient-1)"></path>
            <g id="年付特惠" transform="translate(55.970711, 25.884444) rotate(45.000000) translate(-55.970711, -25.884444) translate(28.591132, 19.339444)" fill="#FFFFFF" fill-rule="nonzero">
                <path d="M3.094,2.87 L6.622,2.87 L6.622,4.802 L2.464,4.802 L2.464,8.764 L0.266,8.764 L0.266,10.066 L6.622,10.066 L6.622,13.09 L7.952,13.09 L7.952,10.066 L12.684,10.066 L12.684,8.764 L7.952,8.764 L7.952,6.048 L11.76,6.048 L11.76,4.802 L7.952,4.802 L7.952,2.87 L12.25,2.87 L12.25,1.582 L3.738,1.582 C3.906,1.162 4.046,0.728 4.186,0.252 L2.814,-2.094457e-14 C2.338,1.764 1.4,3.164 -4.19162548e-14,4.214 L0.896,5.334 C1.778,4.662 2.506,3.85 3.094,2.87 Z M3.808,8.764 L3.808,6.048 L6.622,6.048 L6.622,8.764 L3.808,8.764 Z" id="形状"></path>
                <path d="M17.007053,-1.23239321e-14 C16.335053,2.184 15.271053,4.102 13.843053,5.74 L14.263053,7.126 C14.795053,6.566 15.285053,5.992 15.733053,5.404 L15.733053,13.076 L17.063053,13.076 L17.063053,3.346 C17.539053,2.464 17.945053,1.54 18.253053,0.588 L17.007053,-1.23239321e-14 Z M18.407053,3.052 L18.407053,4.34 L23.531053,4.34 L23.531053,11.116 C23.531053,11.536 23.321053,11.76 22.929053,11.76 C22.313053,11.76 21.669053,11.732 21.011053,11.676 L21.305053,12.978 L23.391053,12.978 C24.371053,12.978 24.861053,12.46 24.861053,11.452 L24.861053,4.34 L26.793053,4.34 L26.793053,3.052 L24.861053,3.052 L24.861053,0.182 L23.531053,0.182 L23.531053,3.052 L18.407053,3.052 Z M19.849053,5.656 L18.757053,6.328 C19.737053,7.546 20.521053,8.652 21.109053,9.646 L22.243053,8.862 C21.683053,7.938 20.885053,6.874 19.849053,5.656 Z" id="形状"></path>
                <path d="M36.338106,0.112 L36.338106,1.512 L34.014106,1.512 L34.014106,2.73 L36.338106,2.73 L36.338106,4.06 L33.244106,4.06 L33.244106,5.32 L40.762106,5.32 L40.762106,4.06 L37.682106,4.06 L37.682106,2.73 L40.146106,2.73 L40.146106,1.512 L37.682106,1.512 L37.682106,0.112 L36.338106,0.112 Z M33.552106,6.664 L33.552106,7.924 L37.864106,7.924 L37.864106,11.228 C37.864106,11.592 37.710106,11.788 37.416106,11.788 C36.912106,11.788 36.380106,11.746 35.820106,11.69 L36.100106,12.95 L37.878106,12.95 C38.718106,12.95 39.152106,12.488 39.152106,11.564 L39.152106,7.924 L40.636106,7.924 L40.636106,6.664 L39.152106,6.664 L39.152106,5.866 L37.864106,5.866 L37.864106,6.664 L33.552106,6.664 Z M34.742106,8.344 L33.706106,9.002 C34.378106,9.786 34.924106,10.514 35.330106,11.172 L36.380106,10.43 C35.988106,9.842 35.442106,9.142 34.742106,8.344 Z M29.478106,4.228 L30.500106,4.228 L30.500106,7.672 C29.646106,7.924 28.778106,8.134 27.910106,8.302 L28.232106,9.59 C29.002106,9.394 29.758106,9.17 30.500106,8.918 L30.500106,13.048 L31.774106,13.048 L31.774106,8.456 C32.166106,8.316 32.558106,8.148 32.950106,7.98 L32.950106,6.72 C32.572106,6.888 32.180106,7.042 31.774106,7.21 L31.774106,4.228 L32.894106,4.228 L32.894106,2.94 L31.774106,2.94 L31.774106,0.14 L30.500106,0.14 L30.500106,2.94 L29.660106,2.94 C29.716106,2.408 29.744106,1.876 29.772106,1.33 L28.568106,1.246 C28.512106,2.87 28.274106,4.41 27.854106,5.866 L29.016106,6.202 C29.198106,5.558 29.352106,4.9 29.478106,4.228 Z" id="形状"></path>
                <path d="M42.061159,0.952 L42.061159,2.072 L47.647159,2.072 L47.647159,2.688 L43.251159,2.688 L43.251159,6.874 L47.647159,6.874 L47.647159,7.546 C46.051159,7.574 44.287159,7.588 42.355159,7.616 L42.523159,8.778 C47.255159,8.652 50.713159,8.512 52.883159,8.358 C53.149159,8.638 53.387159,8.918 53.611159,9.198 L54.591159,8.526 C54.171159,8.05 53.597159,7.49 52.869159,6.874 L53.359159,6.874 L53.359159,2.688 L48.963159,2.688 L48.963159,2.072 L54.549159,2.072 L54.549159,0.952 L48.963159,0.952 L48.963159,0.098 L47.647159,0.098 L47.647159,0.952 L42.061159,0.952 Z M51.931159,7.42 C51.049159,7.448 50.055159,7.49 48.963159,7.518 L48.963159,6.874 L51.819159,6.874 L51.539159,7.056 L51.931159,7.42 Z M52.099159,5.894 L48.963159,5.894 L48.963159,5.208 L52.099159,5.208 L52.099159,5.894 Z M47.647159,5.894 L44.511159,5.894 L44.511159,5.208 L47.647159,5.208 L47.647159,5.894 Z M44.511159,4.354 L44.511159,3.668 L47.647159,3.668 L47.647159,4.354 L44.511159,4.354 Z M48.963159,3.668 L52.099159,3.668 L52.099159,4.354 L48.963159,4.354 L48.963159,3.668 Z M43.237159,9.198 C42.971159,10.15 42.537159,11.032 41.935159,11.858 L43.027159,12.558 C43.629159,11.676 44.091159,10.64 44.427159,9.436 L43.237159,9.198 Z M50.307159,12.824 C50.811159,12.824 51.175159,12.726 51.413159,12.53 C51.665159,12.32 51.847159,11.69 51.945159,10.626 L50.741159,10.234 C50.699159,10.892 50.615159,11.284 50.503159,11.424 C50.419159,11.536 50.265159,11.606 50.069159,11.606 L46.975159,11.606 C46.639159,11.606 46.485159,11.466 46.485159,11.2 L46.485159,9.142 L45.197159,9.142 L45.197159,11.48 C45.197159,12.376 45.659159,12.824 46.583159,12.824 L50.307159,12.824 Z M48.459159,8.792 L47.465159,9.408 C48.137159,10.038 48.669159,10.612 49.061159,11.13 L50.055159,10.444 C49.677159,9.968 49.145159,9.422 48.459159,8.792 Z M52.659159,8.876 L51.651159,9.506 C52.519159,10.528 53.205159,11.452 53.709159,12.292 L54.759159,11.592 C54.269159,10.808 53.569159,9.898 52.659159,8.876 Z" id="形状"></path>
            </g>
        </g>
    </g>
</svg>