<?xml version="1.0" encoding="UTF-8"?>
<svg width="80px" height="80px" viewBox="0 0 80 80" version="1.1" xmlns="http://www.w3.org/2000/svg" xmlns:xlink="http://www.w3.org/1999/xlink">
    <title>Apple TV</title>
    <defs>
        <linearGradient x1="71.7238761%" y1="19.6312521%" x2="47.2164514%" y2="47.256533%" id="linearGradient-1">
            <stop stop-color="#59A2FD" offset="0%"></stop>
            <stop stop-color="#4176FA" offset="100%"></stop>
        </linearGradient>
    </defs>
    <g id="页面-1" stroke="none" stroke-width="1" fill="none" fill-rule="evenodd">
        <g id="Apple-TV" transform="translate(-1037.000000, -442.000000)">
            <g id="编组" transform="translate(1037.447709, 442.000000)">
                <polygon id="路径" fill="url(#linearGradient-1)" points="-5.71633257e-14 1.12567058e-17 40.2581319 0 80 40 80 80"></polygon>
                <g id="推荐下载" transform="translate(49.868633, 29.667067) rotate(45.000000) translate(-49.868633, -29.667067) translate(18.529685, 22.235067)" fill="#FFFFFF" fill-rule="nonzero">
                    <path d="M7.888,7.408 L10.368,7.408 L10.368,9.184 L7.888,9.184 L7.888,7.408 Z M7.888,10.592 L10.368,10.592 L10.368,12.576 L7.888,12.576 L7.888,10.592 Z M7.888,14.032 L14.656,14.032 L14.656,12.576 L11.872,12.576 L11.872,10.592 L14.16,10.592 L14.16,9.184 L11.872,9.184 L11.872,7.408 L14.16,7.408 L14.16,5.984 L11.872,5.984 L11.872,4.144 L14.48,4.144 L14.48,2.688 L12.032,2.688 C11.84,1.888 11.552,1.008 11.2,0.032 L9.744,0.416 C10.064,1.152 10.352,1.92 10.608,2.688 L8.16,2.688 C8.48,1.952 8.752,1.184 8.976,0.384 L7.504,0.096 C6.992,2.112 6.096,3.952 4.832,5.648 L5.344,7.248 C5.712,6.8 6.064,6.352 6.384,5.888 L6.384,14.752 L7.888,14.752 L7.888,14.032 Z M10.368,4.144 L10.368,5.984 L7.888,5.984 L7.888,4.144 L10.368,4.144 Z M5.104,6.528 C4.656,6.752 4.208,6.96 3.744,7.152 L3.744,4.352 L5.232,4.352 L5.232,2.88 L3.744,2.88 L3.744,0.064 L2.224,0.064 L2.224,2.88 L0.304,2.88 L0.304,4.352 L2.224,4.352 L2.224,7.712 C1.488,7.936 0.752,8.128 -1.0843247e-14,8.288 L0.384,9.824 C0.992,9.648 1.616,9.456 2.224,9.248 L2.224,12.64 C2.224,13.024 2.016,13.216 1.6,13.216 C1.2,13.216 0.784,13.184 0.352,13.12 L0.688,14.592 L2.128,14.592 C3.2,14.592 3.744,14.064 3.744,13.024 L3.744,8.672 C4.192,8.48 4.656,8.288 5.104,8.08 L5.104,6.528 Z" id="形状"></path>
                    <path d="M16.412632,1.088 L16.412632,2.48 L19.932632,2.48 L19.932632,3.504 L21.468632,3.504 L21.468632,2.48 L25.340632,2.48 L25.340632,3.52 L26.876632,3.52 L26.876632,2.48 L30.396632,2.48 L30.396632,1.088 L26.876632,1.088 L26.876632,0.08 L25.340632,0.08 L25.340632,1.088 L21.468632,1.088 L21.468632,0.08 L19.932632,0.08 L19.932632,1.088 L16.412632,1.088 Z M16.668632,4.432 L16.668632,5.824 L20.284632,5.824 C19.260632,7.296 17.868632,8.608 16.076632,9.76 L17.036632,11.008 C17.708632,10.56 18.332632,10.08 18.924632,9.568 L18.924632,14.864 L20.380632,14.864 L20.380632,8.144 C21.020632,7.408 21.580632,6.64 22.060632,5.824 L30.316632,5.824 L30.316632,4.432 L22.748632,4.432 C22.860632,4.16 22.972632,3.888 23.068632,3.6 L21.596632,3.344 C21.452632,3.696 21.292632,4.064 21.116632,4.432 L16.668632,4.432 Z M25.532632,9.2 L25.532632,9.968 L21.292632,9.968 L21.292632,11.408 L25.532632,11.408 L25.532632,12.96 C25.532632,13.28 25.356632,13.44 25.036632,13.44 C24.604632,13.44 24.012632,13.408 23.260632,13.344 L23.708632,14.816 L25.644632,14.816 C26.588632,14.816 27.068632,14.336 27.068632,13.392 L27.068632,11.408 L30.412632,11.408 L30.412632,9.968 L27.068632,9.968 L27.068632,9.6 C27.932632,8.96 28.716632,8.384 29.388632,7.856 L29.388632,6.768 L22.412632,6.768 L22.412632,8.144 L27.212632,8.144 C26.508632,8.576 25.948632,8.928 25.532632,9.2 Z" id="形状"></path>
                    <path d="M32.169264,0.8 L32.169264,2.288 L38.153264,2.288 L38.153264,14.832 L39.673264,14.832 L39.673264,6 C41.017264,6.688 42.697264,7.696 44.713264,9.008 L45.625264,7.632 C43.609264,6.416 41.625264,5.328 39.673264,4.384 L39.673264,2.288 L46.489264,2.288 L46.489264,0.8 L32.169264,0.8 Z" id="路径"></path>
                    <path d="M49.013896,1.232 L49.013896,2.608 L52.005896,2.608 L52.005896,3.76 L48.181896,3.76 L48.181896,5.152 L57.061896,5.152 C57.157896,6.528 57.333896,7.728 57.557896,8.72 C57.717896,9.52 57.925896,10.256 58.149896,10.928 C57.365896,12.112 56.421896,13.008 55.301896,13.616 L56.117896,14.832 C57.109896,14.288 58.005896,13.536 58.805896,12.544 C58.917896,12.768 59.045896,12.992 59.189896,13.2 C59.861896,14.16 60.469896,14.64 61.045896,14.64 C61.765896,14.64 62.309896,13.568 62.677896,11.44 L61.381896,10.752 C61.205896,12.304 61.029896,13.088 60.869896,13.088 C60.661896,13.088 60.373896,12.704 59.989896,11.968 C59.877896,11.76 59.765896,11.52 59.669896,11.264 C60.453896,9.92 61.093896,8.272 61.589896,6.32 L60.229896,5.712 C59.925896,7.008 59.541896,8.176 59.077896,9.232 C59.013896,8.96 58.965896,8.672 58.901896,8.384 C58.741896,7.552 58.613896,6.48 58.517896,5.152 L62.341896,5.152 L62.341896,3.76 L58.437896,3.76 C58.373896,2.64 58.341896,1.392 58.341896,2.3551614e-14 L56.869896,2.3551614e-14 C56.869896,1.344 56.901896,2.608 56.965896,3.76 L53.477896,3.76 L53.477896,2.608 L56.245896,2.608 L56.245896,1.232 L53.477896,1.232 L53.477896,0.016 L52.005896,0.016 L52.005896,1.232 L49.013896,1.232 Z M59.973896,0.16 L58.821896,0.896 C59.621896,1.792 60.245896,2.592 60.693896,3.312 L61.829896,2.512 C61.397896,1.84 60.773896,1.056 59.973896,0.16 Z M56.245896,11.376 C55.493896,11.472 54.709896,11.552 53.877896,11.632 L53.877896,10.608 L56.165896,10.608 L56.165896,9.344 L53.877896,9.344 L53.877896,8.288 L52.389896,8.288 L52.389896,9.344 L50.837896,9.344 C51.157896,8.848 51.477896,8.304 51.765896,7.696 L56.325896,7.696 L56.325896,6.352 L52.325896,6.352 C52.421896,6.096 52.517896,5.84 52.613896,5.552 L51.173896,5.28 C51.045896,5.648 50.933896,6 50.805896,6.352 L48.661896,6.352 L48.661896,7.696 L50.213896,7.696 C49.877896,8.368 49.525896,8.928 49.141896,9.392 L49.429896,10.608 L52.389896,10.608 L52.389896,11.776 C51.237896,11.872 50.037896,11.952 48.757896,12.016 L48.933896,13.424 C50.133896,13.328 51.285896,13.232 52.389896,13.136 L52.389896,14.784 L53.877896,14.784 L53.877896,12.976 C54.693896,12.88 55.477896,12.784 56.245896,12.688 L56.245896,11.376 Z" id="形状"></path>
                </g>
            </g>
        </g>
    </g>
</svg>