<?xml version="1.0" encoding="UTF-8"?>
<svg width="16px" height="13px" viewBox="0 0 16 13" version="1.1" xmlns="http://www.w3.org/2000/svg" xmlns:xlink="http://www.w3.org/1999/xlink">
    <title>black.3c208dec394a</title>
    <g id="页面-1" stroke="none" stroke-width="1" fill="none" fill-rule="evenodd">
        <g id="1.10注册与找回密码验证" transform="translate(-16.000000, -4360.000000)" fill="#000000" fill-rule="nonzero">
            <g id="black.3c208dec394a" transform="translate(16.000000, 4360.000000)">
                <path d="M5.032,12.9972415 C11.069,12.9972415 14.372,7.99524155 14.372,3.65724155 C14.372,3.51524155 14.372,3.37424155 14.362,3.23324155 C15.004521,2.76862656 15.559178,2.19331386 16,1.53424155 C15.4,1.80024155 14.765,1.97424155 14.115,2.05124155 C14.8002663,1.64088074 15.3130835,0.995505845 15.558,0.235241546 C14.9134704,0.617730042 14.2083235,0.887275411 13.473,1.03224155 C12.4551339,-0.0476470171 10.8398015,-0.311311123 9.5313823,0.388867413 C8.22296314,1.08904595 7.54620258,2.57928512 7.88,4.02524155 C5.24066724,3.89347542 2.78134769,2.64745895 1.114,0.597241546 C0.243283505,2.0968417 0.688114869,4.01495804 2.13,4.97824155 C1.6075557,4.9627437 1.09650843,4.82177697 0.64,4.56724155 L0.64,4.60824155 C0.640014417,6.17136769 1.74179829,7.517853 3.274,7.82724155 C2.79,7.95924155 2.284,7.97824155 1.791,7.88324155 C2.22084539,9.22071433 3.45339637,10.1369896 4.858,10.1632415 C3.48315299,11.2429254 1.73551109,11.731819 4.57064941e-16,11.5222415 C1.50131183,12.4856484 3.24816025,12.9966502 5.032,12.9942415" id="路径"></path>
            </g>
        </g>
    </g>
</svg>