<?xml version="1.0" encoding="UTF-8"?>
<svg width="939px" height="939px" viewBox="0 0 939 939" version="1.1" xmlns="http://www.w3.org/2000/svg" xmlns:xlink="http://www.w3.org/1999/xlink">
    <title>wancheng</title>
    <g id="页面-1" stroke="none" stroke-width="1" fill="none" fill-rule="evenodd">
        <g id="wancheng" fill="#52C41A" fill-rule="nonzero">
            <path d="M469.333333,938.666666 C210.133333,938.666666 3.55271368e-14,728.533333 3.55271368e-14,469.333333 C3.55271368e-14,210.133333 210.133333,3.55271368e-14 469.333333,3.55271368e-14 C728.533333,3.55271368e-14 938.666666,210.133333 938.666666,469.333333 C938.666666,728.533333 728.533333,938.666666 469.333333,938.666666 Z M418.901333,612.565333 L267.946666,461.653333 C255.338249,449.904691 235.690253,450.251358 223.504138,462.437472 C211.318024,474.623587 210.971357,494.271584 222.72,506.88 L397.44,681.642666 C397.552927,681.757292 397.666708,681.871073 397.781333,681.984 L398.037333,682.197333 C405.002224,689.15936 414.784774,692.526758 424.559215,691.326827 C434.333655,690.126896 443.011224,684.493293 448.085333,676.053333 L785.536,296.448 C793.127179,287.896491 795.579542,275.944725 791.969308,265.094816 C788.359073,254.244907 779.234722,246.145215 768.033308,243.846816 C756.831894,241.548416 745.255179,245.400491 737.664,253.952 L418.901333,612.565333 Z" id="形状"></path>
        </g>
    </g>
</svg>