<?xml version="1.0" encoding="UTF-8"?>
<svg width="730px" height="521px" viewBox="0 0 730 521" version="1.1" xmlns="http://www.w3.org/2000/svg" xmlns:xlink="http://www.w3.org/1999/xlink">
    <title>xinhao</title>
    <g id="页面-1" stroke="none" stroke-width="1" fill="none" fill-rule="evenodd">
        <g id="xinhao" fill="#6DD400" fill-rule="nonzero">
            <path d="M358.4,85.333334 C243.2,85.333334 136.533333,132.266667 59.733333,206.933334 L0,147.2 C78.933333,70.4 183.466667,17.066667 298.666667,4.266667 C317.866667,2.133334 337.066667,2.84217094e-14 358.4,2.84217094e-14 C379.733333,2.84217094e-14 398.933333,2.133333 418.133333,4.266667 C539.733333,19.2 648.533333,74.666667 729.6,160 L669.866667,221.866667 C590.933334,136.533334 482.133334,85.333334 358.4,85.333334 L358.4,85.333334 Z" id="路径"></path>
            <path d="M358.4,277.333334 C296.533333,277.333334 238.933333,302.933334 196.266667,343.466667 L136.533333,281.6 C194.133333,226.133333 273.066666,192 358.4,192 C452.266667,192 537.6,232.533333 595.2,296.533334 L535.466667,358.4 C492.8,307.2 428.8,277.333333 358.4,277.333334 Z M270.933333,416 C294.4,394.666667 324.266666,381.866667 358.4,381.866667 C401.066667,381.866667 437.333333,403.2 460.8,433.066667 L375.466667,520.533334 L270.933333,416 L270.933333,416 Z" id="形状"></path>
        </g>
    </g>
</svg>