<?xml version="1.0" encoding="UTF-8"?>
<svg width="449px" height="770px" viewBox="0 0 449 770" version="1.1" xmlns="http://www.w3.org/2000/svg" xmlns:xlink="http://www.w3.org/1999/xlink">
    <title>you</title>
    <g id="页面-1" stroke="none" stroke-width="1" fill="none" fill-rule="evenodd">
        <g id="you" transform="translate(-0.000000, 0.000000)" fill="#42435A" fill-rule="nonzero">
            <path d="M442.118242,405.499516 C442.630861,404.506961 443.461717,403.676105 443.910689,402.650867 C452.711227,384.346231 449.829893,361.947521 434.246612,347.226059 L80.9986077,13.1152672 C61.7341007,-5.0930378 31.3674287,-4.2294978 13.1264397,15.0040452 C-5.08186529,34.2685522 -4.24928929,64.6352242 15.0152177,82.8762132 L331.975627,382.715482 L16.2623617,687.003185 C-2.80948329,705.402432 -3.38575029,735.770824 15.0152177,754.875353 C24.4229857,764.666725 36.9993597,769.564131 49.5757337,769.564131 C61.5758417,769.564131 73.5759487,765.084733 82.8873857,756.124217 L432.93582,418.748488 C433.608418,418.07589 433.863007,417.148703 434.535605,416.445142 C435.048224,415.965207 435.591807,415.612566 436.102706,415.101667 C438.822341,412.251297 440.262147,408.762734 442.118242,405.499516 Z" id="路径"></path>
        </g>
    </g>
</svg>