<?xml version="1.0" encoding="UTF-8"?>
<svg width="16px" height="12px" viewBox="0 0 16 12" version="1.1" xmlns="http://www.w3.org/2000/svg" xmlns:xlink="http://www.w3.org/1999/xlink">
    <title>black.4676190b1a83</title>
    <g id="页面-1" stroke="none" stroke-width="1" fill="none" fill-rule="evenodd">
        <g id="1.10注册与找回密码验证" transform="translate(-93.000000, -4360.000000)" fill="#000000">
            <g id="black.4676190b1a83" transform="translate(93.000000, 4360.000000)">
                <path d="M15.666,1.749 C16,2.997 16,5.599 16,5.599 C16,5.599 16,8.203 15.666,9.451 C15.4804299,10.1412601 14.9412601,10.6804299 14.251,10.866 C13.003,11.2 8,11.2 8,11.2 C8,11.2 2.997,11.2 1.749,10.866 C1.05848614,10.6802509 0.519261232,10.1406449 0.334,9.45 C0,8.203 0,5.6 0,5.6 C0,5.6 0,2.997 0.334,1.749 C0.519749102,1.05848614 1.05935509,0.519261232 1.75,0.334 C2.997,0 7.999,0 7.999,0 C7.999,0 13.003,0 14.251,0.334 C14.94,0.518 15.481,1.06 15.666,1.749 Z M6.4,7.999 L10.557,5.6 L6.4,3.2 L6.4,8 L6.4,7.999 Z" id="形状"></path>
            </g>
        </g>
    </g>
</svg>